<?xml version="1.0" encoding="UTF-8" standalone="no"?>
<svg
   xmlns:dc="http://purl.org/dc/elements/1.1/"
   xmlns:cc="http://creativecommons.org/ns#"
   xmlns:rdf="http://www.w3.org/1999/02/22-rdf-syntax-ns#"
   xmlns:svg="http://www.w3.org/2000/svg"
   xmlns="http://www.w3.org/2000/svg"
   xmlns:sodipodi="http://sodipodi.sourceforge.net/DTD/sodipodi-0.dtd"
   xmlns:inkscape="http://www.inkscape.org/namespaces/inkscape"
   inkscape:version="1.0 (4035a4fb49, 2020-05-01)"
   sodipodi:docname="logout_white.svg"
   xml:space="preserve"
   style="enable-background:new 0 0 512 512;"
   viewBox="0 0 512 512"
   y="0px"
   x="0px"
   id="Capa_1"
   version="1.1"><metadata
   id="metadata49"><rdf:RDF><cc:Work
       rdf:about=""><dc:format>image/svg+xml</dc:format><dc:type
         rdf:resource="http://purl.org/dc/dcmitype/StillImage" /><dc:title></dc:title></cc:Work></rdf:RDF></metadata><defs
   id="defs47" /><sodipodi:namedview
   inkscape:current-layer="Capa_1"
   inkscape:window-maximized="1"
   inkscape:window-y="-9"
   inkscape:window-x="-9"
   inkscape:cy="256"
   inkscape:cx="256"
   inkscape:zoom="1.5892048"
   showgrid="false"
   id="namedview45"
   inkscape:window-height="1013"
   inkscape:window-width="1920"
   inkscape:pageshadow="2"
   inkscape:pageopacity="0"
   guidetolerance="10"
   gridtolerance="10"
   objecttolerance="10"
   borderopacity="1"
   bordercolor="#666666"
   pagecolor="#ffffff" />
<g
   style="fill:#ffffff"
   id="g6">
	<g
   style="fill:#ffffff"
   id="g4">
		<path
   style="fill:#ffffff"
   id="path2"
   d="M255.15,468.625H63.787c-11.737,0-21.262-9.526-21.262-21.262V64.638c0-11.737,9.526-21.262,21.262-21.262H255.15    c11.758,0,21.262-9.504,21.262-21.262S266.908,0.85,255.15,0.85H63.787C28.619,0.85,0,29.47,0,64.638v382.724    c0,35.168,28.619,63.787,63.787,63.787H255.15c11.758,0,21.262-9.504,21.262-21.262    C276.412,478.129,266.908,468.625,255.15,468.625z" />
	</g>
</g>
<g
   style="fill:#ffffff"
   id="g12">
	<g
   style="fill:#ffffff"
   id="g10">
		<path
   style="fill:#ffffff"
   id="path8"
   d="M505.664,240.861L376.388,113.286c-8.335-8.25-21.815-8.143-30.065,0.213s-8.165,21.815,0.213,30.065l92.385,91.173    H191.362c-11.758,0-21.262,9.504-21.262,21.262c0,11.758,9.504,21.263,21.262,21.263h247.559l-92.385,91.173    c-8.377,8.25-8.441,21.709-0.213,30.065c4.167,4.21,9.653,6.336,15.139,6.336c5.401,0,10.801-2.041,14.926-6.124l129.276-127.575    c4.04-3.997,6.336-9.441,6.336-15.139C512,250.302,509.725,244.88,505.664,240.861z" />
	</g>
</g>
<g
   style="fill:#ffffff"
   id="g14">
</g>
<g
   style="fill:#ffffff"
   id="g16">
</g>
<g
   style="fill:#ffffff"
   id="g18">
</g>
<g
   style="fill:#ffffff"
   id="g20">
</g>
<g
   style="fill:#ffffff"
   id="g22">
</g>
<g
   style="fill:#ffffff"
   id="g24">
</g>
<g
   style="fill:#ffffff"
   id="g26">
</g>
<g
   style="fill:#ffffff"
   id="g28">
</g>
<g
   style="fill:#ffffff"
   id="g30">
</g>
<g
   style="fill:#ffffff"
   id="g32">
</g>
<g
   style="fill:#ffffff"
   id="g34">
</g>
<g
   style="fill:#ffffff"
   id="g36">
</g>
<g
   style="fill:#ffffff"
   id="g38">
</g>
<g
   style="fill:#ffffff"
   id="g40">
</g>
<g
   style="fill:#ffffff"
   id="g42">
</g>
</svg>
